<mxfile host="app.diagrams.net" modified="2024-04-04T05:52:40.187Z" agent="Mozilla/5.0 (Windows NT 10.0; WOW64) AppleWebKit/537.36 (KHTML, like Gecko) Chrome/123.0.6312.88 Safari/537.36 NetHelper70" etag="t06CIJDEPGuJvm0LK9EQ" version="24.2.0" type="github">
  <diagram id="C5RBs43oDa-KdzZeNtuy" name="Page-1">
    <mxGraphModel dx="2261" dy="756" grid="1" gridSize="10" guides="1" tooltips="1" connect="1" arrows="1" fold="1" page="1" pageScale="1" pageWidth="827" pageHeight="1169" math="0" shadow="0">
      <root>
        <mxCell id="WIyWlLk6GJQsqaUBKTNV-0" />
        <mxCell id="WIyWlLk6GJQsqaUBKTNV-1" parent="WIyWlLk6GJQsqaUBKTNV-0" />
        <mxCell id="YIULkjpwCNEE645c2rZU-81" value="Async Call" style="edgeStyle=orthogonalEdgeStyle;rounded=0;orthogonalLoop=1;jettySize=auto;html=1;entryX=0;entryY=0.5;entryDx=0;entryDy=0;dashed=1;dashPattern=12 12;" edge="1" parent="WIyWlLk6GJQsqaUBKTNV-1" source="YIULkjpwCNEE645c2rZU-58" target="YIULkjpwCNEE645c2rZU-2">
          <mxGeometry x="-0.9524" relative="1" as="geometry">
            <Array as="points">
              <mxPoint x="-140" y="80" />
            </Array>
            <mxPoint y="-1" as="offset" />
          </mxGeometry>
        </mxCell>
        <mxCell id="YIULkjpwCNEE645c2rZU-44" value="RUNNING" style="edgeStyle=orthogonalEdgeStyle;rounded=0;orthogonalLoop=1;jettySize=auto;html=1;entryX=1;entryY=0.5;entryDx=0;entryDy=0;" edge="1" parent="WIyWlLk6GJQsqaUBKTNV-1" source="YIULkjpwCNEE645c2rZU-0" target="YIULkjpwCNEE645c2rZU-5">
          <mxGeometry relative="1" as="geometry" />
        </mxCell>
        <mxCell id="YIULkjpwCNEE645c2rZU-83" value="STANDBY" style="edgeStyle=orthogonalEdgeStyle;rounded=0;orthogonalLoop=1;jettySize=auto;html=1;entryX=0.5;entryY=0;entryDx=0;entryDy=0;" edge="1" parent="WIyWlLk6GJQsqaUBKTNV-1" source="YIULkjpwCNEE645c2rZU-0" target="YIULkjpwCNEE645c2rZU-9">
          <mxGeometry relative="1" as="geometry" />
        </mxCell>
        <mxCell id="YIULkjpwCNEE645c2rZU-0" value="jobs.states&lt;div&gt;RUNNING or STANBY?&lt;/div&gt;" style="strokeWidth=2;html=1;shape=mxgraph.flowchart.decision;whiteSpace=wrap;" vertex="1" parent="WIyWlLk6GJQsqaUBKTNV-1">
          <mxGeometry x="40" y="160" width="200" height="80" as="geometry" />
        </mxCell>
        <mxCell id="YIULkjpwCNEE645c2rZU-85" style="edgeStyle=orthogonalEdgeStyle;rounded=0;orthogonalLoop=1;jettySize=auto;html=1;entryX=0.5;entryY=0;entryDx=0;entryDy=0;" edge="1" parent="WIyWlLk6GJQsqaUBKTNV-1" source="YIULkjpwCNEE645c2rZU-1" target="YIULkjpwCNEE645c2rZU-16">
          <mxGeometry relative="1" as="geometry" />
        </mxCell>
        <mxCell id="YIULkjpwCNEE645c2rZU-1" value="Execute Job" style="rounded=0;whiteSpace=wrap;html=1;absoluteArcSize=1;arcSize=14;strokeWidth=2;" vertex="1" parent="WIyWlLk6GJQsqaUBKTNV-1">
          <mxGeometry x="40" y="360" width="200" height="40" as="geometry" />
        </mxCell>
        <mxCell id="YIULkjpwCNEE645c2rZU-2" value="Execute Job&lt;div&gt;Collect Station Info&lt;br&gt;&lt;/div&gt;" style="rounded=1;whiteSpace=wrap;html=1;absoluteArcSize=1;arcSize=14;strokeWidth=2;" vertex="1" parent="WIyWlLk6GJQsqaUBKTNV-1">
          <mxGeometry x="40" y="40" width="200" height="80" as="geometry" />
        </mxCell>
        <mxCell id="YIULkjpwCNEE645c2rZU-5" value="jobs.logs &amp;lt;- SKIPPED" style="rounded=1;whiteSpace=wrap;html=1;absoluteArcSize=1;arcSize=14;strokeWidth=2;" vertex="1" parent="WIyWlLk6GJQsqaUBKTNV-1">
          <mxGeometry x="-240" y="180" width="200" height="40" as="geometry" />
        </mxCell>
        <mxCell id="YIULkjpwCNEE645c2rZU-6" value="jobs.logs &amp;lt;- FINISH" style="rounded=1;whiteSpace=wrap;html=1;absoluteArcSize=1;arcSize=14;strokeWidth=2;" vertex="1" parent="WIyWlLk6GJQsqaUBKTNV-1">
          <mxGeometry x="-380" y="1560" width="200" height="40" as="geometry" />
        </mxCell>
        <mxCell id="YIULkjpwCNEE645c2rZU-76" value="yes" style="edgeStyle=orthogonalEdgeStyle;rounded=0;orthogonalLoop=1;jettySize=auto;html=1;entryX=0.5;entryY=0;entryDx=0;entryDy=0;" edge="1" parent="WIyWlLk6GJQsqaUBKTNV-1" source="YIULkjpwCNEE645c2rZU-7" target="YIULkjpwCNEE645c2rZU-8">
          <mxGeometry relative="1" as="geometry">
            <Array as="points">
              <mxPoint x="-280" y="1400" />
            </Array>
          </mxGeometry>
        </mxCell>
        <mxCell id="YIULkjpwCNEE645c2rZU-78" value="no" style="edgeStyle=orthogonalEdgeStyle;rounded=0;orthogonalLoop=1;jettySize=auto;html=1;entryX=0.5;entryY=0;entryDx=0;entryDy=0;" edge="1" parent="WIyWlLk6GJQsqaUBKTNV-1" source="YIULkjpwCNEE645c2rZU-7" target="YIULkjpwCNEE645c2rZU-12">
          <mxGeometry relative="1" as="geometry">
            <Array as="points">
              <mxPoint y="1400" />
            </Array>
          </mxGeometry>
        </mxCell>
        <mxCell id="YIULkjpwCNEE645c2rZU-7" value="Job Finish&lt;div&gt;with Success ?&lt;/div&gt;" style="strokeWidth=2;html=1;shape=mxgraph.flowchart.decision;whiteSpace=wrap;" vertex="1" parent="WIyWlLk6GJQsqaUBKTNV-1">
          <mxGeometry x="-240" y="1360" width="200" height="80" as="geometry" />
        </mxCell>
        <mxCell id="YIULkjpwCNEE645c2rZU-77" style="edgeStyle=orthogonalEdgeStyle;rounded=0;orthogonalLoop=1;jettySize=auto;html=1;entryX=0.5;entryY=0;entryDx=0;entryDy=0;" edge="1" parent="WIyWlLk6GJQsqaUBKTNV-1" source="YIULkjpwCNEE645c2rZU-8" target="YIULkjpwCNEE645c2rZU-6">
          <mxGeometry relative="1" as="geometry" />
        </mxCell>
        <mxCell id="YIULkjpwCNEE645c2rZU-8" value="Jobs.states &amp;lt;- STANDBY" style="rounded=0;whiteSpace=wrap;html=1;absoluteArcSize=1;arcSize=14;strokeWidth=2;" vertex="1" parent="WIyWlLk6GJQsqaUBKTNV-1">
          <mxGeometry x="-380" y="1480" width="200" height="40" as="geometry" />
        </mxCell>
        <mxCell id="YIULkjpwCNEE645c2rZU-84" style="edgeStyle=orthogonalEdgeStyle;rounded=0;orthogonalLoop=1;jettySize=auto;html=1;entryX=0.5;entryY=0;entryDx=0;entryDy=0;" edge="1" parent="WIyWlLk6GJQsqaUBKTNV-1" source="YIULkjpwCNEE645c2rZU-9" target="YIULkjpwCNEE645c2rZU-1">
          <mxGeometry relative="1" as="geometry" />
        </mxCell>
        <mxCell id="YIULkjpwCNEE645c2rZU-9" value="Jobs.states &amp;lt;- RUNNING" style="rounded=0;whiteSpace=wrap;html=1;absoluteArcSize=1;arcSize=14;strokeWidth=2;" vertex="1" parent="WIyWlLk6GJQsqaUBKTNV-1">
          <mxGeometry x="40" y="280" width="200" height="40" as="geometry" />
        </mxCell>
        <mxCell id="YIULkjpwCNEE645c2rZU-11" value="jobs.logs &amp;lt;- FAIL" style="rounded=1;whiteSpace=wrap;html=1;absoluteArcSize=1;arcSize=14;strokeWidth=2;" vertex="1" parent="WIyWlLk6GJQsqaUBKTNV-1">
          <mxGeometry x="-100" y="1560" width="200" height="40" as="geometry" />
        </mxCell>
        <mxCell id="YIULkjpwCNEE645c2rZU-79" style="edgeStyle=orthogonalEdgeStyle;rounded=0;orthogonalLoop=1;jettySize=auto;html=1;" edge="1" parent="WIyWlLk6GJQsqaUBKTNV-1" source="YIULkjpwCNEE645c2rZU-12" target="YIULkjpwCNEE645c2rZU-11">
          <mxGeometry relative="1" as="geometry" />
        </mxCell>
        <mxCell id="YIULkjpwCNEE645c2rZU-12" value="Jobs.states &amp;lt;- STANDBY" style="rounded=0;whiteSpace=wrap;html=1;absoluteArcSize=1;arcSize=14;strokeWidth=2;" vertex="1" parent="WIyWlLk6GJQsqaUBKTNV-1">
          <mxGeometry x="-100" y="1480" width="200" height="40" as="geometry" />
        </mxCell>
        <mxCell id="YIULkjpwCNEE645c2rZU-13" value="Execute Job&lt;div&gt;Collect Station Statistics&lt;/div&gt;" style="rounded=1;whiteSpace=wrap;html=1;absoluteArcSize=1;arcSize=14;strokeWidth=2;" vertex="1" parent="WIyWlLk6GJQsqaUBKTNV-1">
          <mxGeometry x="-520" y="40" width="200" height="80" as="geometry" />
        </mxCell>
        <mxCell id="YIULkjpwCNEE645c2rZU-43" value="RUNNING" style="edgeStyle=orthogonalEdgeStyle;rounded=0;orthogonalLoop=1;jettySize=auto;html=1;entryX=0;entryY=0.5;entryDx=0;entryDy=0;" edge="1" parent="WIyWlLk6GJQsqaUBKTNV-1" source="YIULkjpwCNEE645c2rZU-14" target="YIULkjpwCNEE645c2rZU-5">
          <mxGeometry relative="1" as="geometry" />
        </mxCell>
        <mxCell id="YIULkjpwCNEE645c2rZU-45" value="STANDBY" style="edgeStyle=orthogonalEdgeStyle;rounded=0;orthogonalLoop=1;jettySize=auto;html=1;entryX=0.5;entryY=0;entryDx=0;entryDy=0;" edge="1" parent="WIyWlLk6GJQsqaUBKTNV-1" source="YIULkjpwCNEE645c2rZU-14" target="YIULkjpwCNEE645c2rZU-26">
          <mxGeometry relative="1" as="geometry" />
        </mxCell>
        <mxCell id="YIULkjpwCNEE645c2rZU-14" value="jobs.states&lt;div&gt;RUNNING or STANBY?&lt;/div&gt;" style="strokeWidth=2;html=1;shape=mxgraph.flowchart.decision;whiteSpace=wrap;" vertex="1" parent="WIyWlLk6GJQsqaUBKTNV-1">
          <mxGeometry x="-520" y="160" width="200" height="80" as="geometry" />
        </mxCell>
        <mxCell id="YIULkjpwCNEE645c2rZU-15" value="save subway.stations" style="rounded=0;whiteSpace=wrap;html=1;absoluteArcSize=1;arcSize=14;strokeWidth=2;" vertex="1" parent="WIyWlLk6GJQsqaUBKTNV-1">
          <mxGeometry x="40" y="720" width="200" height="40" as="geometry" />
        </mxCell>
        <mxCell id="YIULkjpwCNEE645c2rZU-86" style="edgeStyle=orthogonalEdgeStyle;rounded=0;orthogonalLoop=1;jettySize=auto;html=1;entryX=0.5;entryY=0;entryDx=0;entryDy=0;" edge="1" parent="WIyWlLk6GJQsqaUBKTNV-1" source="YIULkjpwCNEE645c2rZU-16" target="YIULkjpwCNEE645c2rZU-32">
          <mxGeometry relative="1" as="geometry" />
        </mxCell>
        <mxCell id="YIULkjpwCNEE645c2rZU-16" value="Get Data From SeoulOpenAPI" style="rounded=0;whiteSpace=wrap;html=1;absoluteArcSize=1;arcSize=14;strokeWidth=2;" vertex="1" parent="WIyWlLk6GJQsqaUBKTNV-1">
          <mxGeometry x="40" y="440" width="200" height="40" as="geometry" />
        </mxCell>
        <mxCell id="YIULkjpwCNEE645c2rZU-88" value="no" style="edgeStyle=orthogonalEdgeStyle;rounded=0;orthogonalLoop=1;jettySize=auto;html=1;entryX=0.5;entryY=0;entryDx=0;entryDy=0;" edge="1" parent="WIyWlLk6GJQsqaUBKTNV-1" source="YIULkjpwCNEE645c2rZU-24" target="YIULkjpwCNEE645c2rZU-15">
          <mxGeometry relative="1" as="geometry" />
        </mxCell>
        <mxCell id="YIULkjpwCNEE645c2rZU-24" value="is Data Exist ?" style="strokeWidth=2;html=1;shape=mxgraph.flowchart.decision;whiteSpace=wrap;" vertex="1" parent="WIyWlLk6GJQsqaUBKTNV-1">
          <mxGeometry x="40" y="600" width="200" height="80" as="geometry" />
        </mxCell>
        <mxCell id="YIULkjpwCNEE645c2rZU-47" style="edgeStyle=orthogonalEdgeStyle;rounded=0;orthogonalLoop=1;jettySize=auto;html=1;entryX=0.5;entryY=0;entryDx=0;entryDy=0;" edge="1" parent="WIyWlLk6GJQsqaUBKTNV-1" source="YIULkjpwCNEE645c2rZU-25" target="YIULkjpwCNEE645c2rZU-27">
          <mxGeometry relative="1" as="geometry" />
        </mxCell>
        <mxCell id="YIULkjpwCNEE645c2rZU-25" value="Execute Job" style="rounded=0;whiteSpace=wrap;html=1;absoluteArcSize=1;arcSize=14;strokeWidth=2;" vertex="1" parent="WIyWlLk6GJQsqaUBKTNV-1">
          <mxGeometry x="-520" y="360" width="200" height="40" as="geometry" />
        </mxCell>
        <mxCell id="YIULkjpwCNEE645c2rZU-46" style="edgeStyle=orthogonalEdgeStyle;rounded=0;orthogonalLoop=1;jettySize=auto;html=1;entryX=0.5;entryY=0;entryDx=0;entryDy=0;" edge="1" parent="WIyWlLk6GJQsqaUBKTNV-1" source="YIULkjpwCNEE645c2rZU-26" target="YIULkjpwCNEE645c2rZU-25">
          <mxGeometry relative="1" as="geometry" />
        </mxCell>
        <mxCell id="YIULkjpwCNEE645c2rZU-26" value="Jobs.states &amp;lt;- RUNNING" style="rounded=0;whiteSpace=wrap;html=1;absoluteArcSize=1;arcSize=14;strokeWidth=2;" vertex="1" parent="WIyWlLk6GJQsqaUBKTNV-1">
          <mxGeometry x="-520" y="280" width="200" height="40" as="geometry" />
        </mxCell>
        <mxCell id="YIULkjpwCNEE645c2rZU-48" style="edgeStyle=orthogonalEdgeStyle;rounded=0;orthogonalLoop=1;jettySize=auto;html=1;entryX=1;entryY=0.5;entryDx=0;entryDy=0;" edge="1" parent="WIyWlLk6GJQsqaUBKTNV-1" source="YIULkjpwCNEE645c2rZU-27" target="YIULkjpwCNEE645c2rZU-34">
          <mxGeometry relative="1" as="geometry" />
        </mxCell>
        <mxCell id="YIULkjpwCNEE645c2rZU-27" value="Query Target Dates&lt;div&gt;from Other Modules&lt;/div&gt;" style="rounded=0;whiteSpace=wrap;html=1;absoluteArcSize=1;arcSize=14;strokeWidth=2;" vertex="1" parent="WIyWlLk6GJQsqaUBKTNV-1">
          <mxGeometry x="-520" y="440" width="200" height="80" as="geometry" />
        </mxCell>
        <mxCell id="YIULkjpwCNEE645c2rZU-29" value="Get Data From&amp;nbsp;&lt;div&gt;SeoulOpenAPI by Date&lt;/div&gt;" style="rounded=0;whiteSpace=wrap;html=1;absoluteArcSize=1;arcSize=14;strokeWidth=2;" vertex="1" parent="WIyWlLk6GJQsqaUBKTNV-1">
          <mxGeometry x="-520" y="840" width="200" height="80" as="geometry" />
        </mxCell>
        <mxCell id="YIULkjpwCNEE645c2rZU-92" value="no" style="edgeStyle=orthogonalEdgeStyle;rounded=0;orthogonalLoop=1;jettySize=auto;html=1;entryX=1;entryY=0.5;entryDx=0;entryDy=0;" edge="1" parent="WIyWlLk6GJQsqaUBKTNV-1" source="YIULkjpwCNEE645c2rZU-30" target="YIULkjpwCNEE645c2rZU-32">
          <mxGeometry relative="1" as="geometry">
            <Array as="points">
              <mxPoint x="260" y="840" />
              <mxPoint x="260" y="540" />
            </Array>
          </mxGeometry>
        </mxCell>
        <mxCell id="YIULkjpwCNEE645c2rZU-30" value="Iterate Data&lt;div&gt;finish ?&lt;/div&gt;" style="strokeWidth=2;html=1;shape=mxgraph.flowchart.decision;whiteSpace=wrap;" vertex="1" parent="WIyWlLk6GJQsqaUBKTNV-1">
          <mxGeometry x="40" y="800" width="200" height="80" as="geometry" />
        </mxCell>
        <mxCell id="YIULkjpwCNEE645c2rZU-71" value="no" style="edgeStyle=orthogonalEdgeStyle;rounded=0;orthogonalLoop=1;jettySize=auto;html=1;entryX=1;entryY=0.5;entryDx=0;entryDy=0;" edge="1" parent="WIyWlLk6GJQsqaUBKTNV-1">
          <mxGeometry x="-0.862" relative="1" as="geometry">
            <mxPoint x="-310" y="1199.9999999999998" as="sourcePoint" />
            <mxPoint x="-310" y="660" as="targetPoint" />
            <Array as="points">
              <mxPoint x="-290" y="1200" />
              <mxPoint x="-290" y="660" />
            </Array>
            <mxPoint as="offset" />
          </mxGeometry>
        </mxCell>
        <mxCell id="YIULkjpwCNEE645c2rZU-31" value="Iterate Date&lt;div&gt;finish ?&lt;/div&gt;" style="strokeWidth=2;html=1;shape=mxgraph.flowchart.decision;whiteSpace=wrap;" vertex="1" parent="WIyWlLk6GJQsqaUBKTNV-1">
          <mxGeometry x="-520" y="1160" width="200" height="80" as="geometry" />
        </mxCell>
        <mxCell id="YIULkjpwCNEE645c2rZU-32" value="Iterate Data" style="rounded=0;whiteSpace=wrap;html=1;absoluteArcSize=1;arcSize=14;strokeWidth=2;" vertex="1" parent="WIyWlLk6GJQsqaUBKTNV-1">
          <mxGeometry x="40" y="520" width="200" height="40" as="geometry" />
        </mxCell>
        <mxCell id="YIULkjpwCNEE645c2rZU-33" value="Iterate Date" style="rounded=0;whiteSpace=wrap;html=1;absoluteArcSize=1;arcSize=14;strokeWidth=2;" vertex="1" parent="WIyWlLk6GJQsqaUBKTNV-1">
          <mxGeometry x="-520" y="640" width="200" height="40" as="geometry" />
        </mxCell>
        <mxCell id="YIULkjpwCNEE645c2rZU-49" style="edgeStyle=orthogonalEdgeStyle;rounded=0;orthogonalLoop=1;jettySize=auto;html=1;entryX=0.5;entryY=0;entryDx=0;entryDy=0;" edge="1" parent="WIyWlLk6GJQsqaUBKTNV-1" source="YIULkjpwCNEE645c2rZU-34" target="YIULkjpwCNEE645c2rZU-40">
          <mxGeometry relative="1" as="geometry" />
        </mxCell>
        <mxCell id="YIULkjpwCNEE645c2rZU-34" value="Iterate Beans" style="rounded=0;whiteSpace=wrap;html=1;absoluteArcSize=1;arcSize=14;strokeWidth=2;" vertex="1" parent="WIyWlLk6GJQsqaUBKTNV-1">
          <mxGeometry x="-800" y="460" width="200" height="40" as="geometry" />
        </mxCell>
        <mxCell id="YIULkjpwCNEE645c2rZU-52" value="no" style="edgeStyle=elbowEdgeStyle;rounded=0;orthogonalLoop=1;jettySize=auto;html=1;entryX=0;entryY=0.5;entryDx=0;entryDy=0;exitX=0;exitY=0.5;exitDx=0;exitDy=0;exitPerimeter=0;" edge="1" parent="WIyWlLk6GJQsqaUBKTNV-1" source="YIULkjpwCNEE645c2rZU-35" target="YIULkjpwCNEE645c2rZU-34">
          <mxGeometry relative="1" as="geometry">
            <mxPoint x="-819.91" y="660" as="sourcePoint" />
            <mxPoint x="-819.91" y="480" as="targetPoint" />
            <Array as="points">
              <mxPoint x="-820" y="570" />
            </Array>
          </mxGeometry>
        </mxCell>
        <mxCell id="YIULkjpwCNEE645c2rZU-53" value="yes" style="edgeStyle=orthogonalEdgeStyle;rounded=0;orthogonalLoop=1;jettySize=auto;html=1;entryX=0;entryY=0.5;entryDx=0;entryDy=0;" edge="1" parent="WIyWlLk6GJQsqaUBKTNV-1" source="YIULkjpwCNEE645c2rZU-35" target="YIULkjpwCNEE645c2rZU-33">
          <mxGeometry relative="1" as="geometry" />
        </mxCell>
        <mxCell id="YIULkjpwCNEE645c2rZU-35" value="Iterate Bean&lt;div&gt;finish ?&lt;/div&gt;" style="strokeWidth=2;html=1;shape=mxgraph.flowchart.decision;whiteSpace=wrap;" vertex="1" parent="WIyWlLk6GJQsqaUBKTNV-1">
          <mxGeometry x="-800" y="620" width="200" height="80" as="geometry" />
        </mxCell>
        <mxCell id="YIULkjpwCNEE645c2rZU-37" value="save subway.statistics" style="rounded=0;whiteSpace=wrap;html=1;absoluteArcSize=1;arcSize=14;strokeWidth=2;" vertex="1" parent="WIyWlLk6GJQsqaUBKTNV-1">
          <mxGeometry x="-520" y="1080" width="200" height="40" as="geometry" />
        </mxCell>
        <mxCell id="YIULkjpwCNEE645c2rZU-64" value="no" style="edgeStyle=orthogonalEdgeStyle;rounded=0;orthogonalLoop=1;jettySize=auto;html=1;entryX=0.5;entryY=0;entryDx=0;entryDy=0;" edge="1" parent="WIyWlLk6GJQsqaUBKTNV-1" source="YIULkjpwCNEE645c2rZU-39" target="YIULkjpwCNEE645c2rZU-29">
          <mxGeometry relative="1" as="geometry" />
        </mxCell>
        <mxCell id="YIULkjpwCNEE645c2rZU-39" value="is Statistics Data Exist ?" style="strokeWidth=2;html=1;shape=mxgraph.flowchart.decision;whiteSpace=wrap;" vertex="1" parent="WIyWlLk6GJQsqaUBKTNV-1">
          <mxGeometry x="-520" y="720" width="200" height="80" as="geometry" />
        </mxCell>
        <mxCell id="YIULkjpwCNEE645c2rZU-40" value="Collect target Dates" style="rounded=0;whiteSpace=wrap;html=1;absoluteArcSize=1;arcSize=14;strokeWidth=2;" vertex="1" parent="WIyWlLk6GJQsqaUBKTNV-1">
          <mxGeometry x="-800" y="540" width="200" height="40" as="geometry" />
        </mxCell>
        <mxCell id="YIULkjpwCNEE645c2rZU-67" value="yes" style="edgeStyle=orthogonalEdgeStyle;rounded=0;orthogonalLoop=1;jettySize=auto;html=1;entryX=0.5;entryY=0;entryDx=0;entryDy=0;" edge="1" parent="WIyWlLk6GJQsqaUBKTNV-1" source="YIULkjpwCNEE645c2rZU-41" target="YIULkjpwCNEE645c2rZU-37">
          <mxGeometry relative="1" as="geometry" />
        </mxCell>
        <mxCell id="YIULkjpwCNEE645c2rZU-68" value="no" style="edgeStyle=orthogonalEdgeStyle;rounded=0;orthogonalLoop=1;jettySize=auto;html=1;entryX=0;entryY=0.5;entryDx=0;entryDy=0;" edge="1" parent="WIyWlLk6GJQsqaUBKTNV-1" source="YIULkjpwCNEE645c2rZU-41" target="YIULkjpwCNEE645c2rZU-56">
          <mxGeometry relative="1" as="geometry" />
        </mxCell>
        <mxCell id="YIULkjpwCNEE645c2rZU-41" value="is Station Data Exist ?" style="strokeWidth=2;html=1;shape=mxgraph.flowchart.decision;whiteSpace=wrap;" vertex="1" parent="WIyWlLk6GJQsqaUBKTNV-1">
          <mxGeometry x="-520" y="960" width="200" height="80" as="geometry" />
        </mxCell>
        <mxCell id="YIULkjpwCNEE645c2rZU-42" style="edgeStyle=orthogonalEdgeStyle;rounded=0;orthogonalLoop=1;jettySize=auto;html=1;entryX=0.5;entryY=0;entryDx=0;entryDy=0;entryPerimeter=0;" edge="1" parent="WIyWlLk6GJQsqaUBKTNV-1" source="YIULkjpwCNEE645c2rZU-13" target="YIULkjpwCNEE645c2rZU-14">
          <mxGeometry relative="1" as="geometry" />
        </mxCell>
        <mxCell id="YIULkjpwCNEE645c2rZU-50" style="edgeStyle=orthogonalEdgeStyle;rounded=0;orthogonalLoop=1;jettySize=auto;html=1;entryX=0.5;entryY=0;entryDx=0;entryDy=0;entryPerimeter=0;" edge="1" parent="WIyWlLk6GJQsqaUBKTNV-1" source="YIULkjpwCNEE645c2rZU-40" target="YIULkjpwCNEE645c2rZU-35">
          <mxGeometry relative="1" as="geometry" />
        </mxCell>
        <mxCell id="YIULkjpwCNEE645c2rZU-54" style="edgeStyle=orthogonalEdgeStyle;rounded=0;orthogonalLoop=1;jettySize=auto;html=1;entryX=0.5;entryY=0;entryDx=0;entryDy=0;entryPerimeter=0;" edge="1" parent="WIyWlLk6GJQsqaUBKTNV-1" source="YIULkjpwCNEE645c2rZU-33" target="YIULkjpwCNEE645c2rZU-39">
          <mxGeometry relative="1" as="geometry" />
        </mxCell>
        <mxCell id="YIULkjpwCNEE645c2rZU-69" style="edgeStyle=orthogonalEdgeStyle;rounded=0;orthogonalLoop=1;jettySize=auto;html=1;entryX=1;entryY=0.5;entryDx=0;entryDy=0;" edge="1" parent="WIyWlLk6GJQsqaUBKTNV-1" source="YIULkjpwCNEE645c2rZU-56" target="YIULkjpwCNEE645c2rZU-37">
          <mxGeometry relative="1" as="geometry">
            <Array as="points">
              <mxPoint x="-180" y="1100" />
            </Array>
          </mxGeometry>
        </mxCell>
        <mxCell id="YIULkjpwCNEE645c2rZU-56" value="CollectStationFlag &amp;lt;- true" style="rounded=0;whiteSpace=wrap;html=1;absoluteArcSize=1;arcSize=14;strokeWidth=2;" vertex="1" parent="WIyWlLk6GJQsqaUBKTNV-1">
          <mxGeometry x="-240" y="980" width="200" height="40" as="geometry" />
        </mxCell>
        <mxCell id="YIULkjpwCNEE645c2rZU-74" value="yes" style="edgeStyle=orthogonalEdgeStyle;rounded=0;orthogonalLoop=1;jettySize=auto;html=1;entryX=0.5;entryY=1;entryDx=0;entryDy=0;" edge="1" parent="WIyWlLk6GJQsqaUBKTNV-1" source="YIULkjpwCNEE645c2rZU-57" target="YIULkjpwCNEE645c2rZU-58">
          <mxGeometry relative="1" as="geometry" />
        </mxCell>
        <mxCell id="YIULkjpwCNEE645c2rZU-57" value="CollectStationFlag == true?" style="strokeWidth=2;html=1;shape=mxgraph.flowchart.decision;whiteSpace=wrap;" vertex="1" parent="WIyWlLk6GJQsqaUBKTNV-1">
          <mxGeometry x="-240" y="1240" width="200" height="80" as="geometry" />
        </mxCell>
        <mxCell id="YIULkjpwCNEE645c2rZU-58" value="Execute Async" style="rounded=0;whiteSpace=wrap;html=1;absoluteArcSize=1;arcSize=14;strokeWidth=2;" vertex="1" parent="WIyWlLk6GJQsqaUBKTNV-1">
          <mxGeometry x="-240" y="1160" width="200" height="40" as="geometry" />
        </mxCell>
        <mxCell id="YIULkjpwCNEE645c2rZU-65" value="yes" style="edgeStyle=orthogonalEdgeStyle;rounded=0;orthogonalLoop=1;jettySize=auto;html=1;entryX=0;entryY=0.5;entryDx=0;entryDy=0;entryPerimeter=0;" edge="1" parent="WIyWlLk6GJQsqaUBKTNV-1" source="YIULkjpwCNEE645c2rZU-39" target="YIULkjpwCNEE645c2rZU-31">
          <mxGeometry relative="1" as="geometry">
            <Array as="points">
              <mxPoint x="-550" y="760" />
              <mxPoint x="-550" y="1200" />
            </Array>
          </mxGeometry>
        </mxCell>
        <mxCell id="YIULkjpwCNEE645c2rZU-66" style="edgeStyle=orthogonalEdgeStyle;rounded=0;orthogonalLoop=1;jettySize=auto;html=1;entryX=0.5;entryY=0;entryDx=0;entryDy=0;entryPerimeter=0;" edge="1" parent="WIyWlLk6GJQsqaUBKTNV-1" source="YIULkjpwCNEE645c2rZU-29" target="YIULkjpwCNEE645c2rZU-41">
          <mxGeometry relative="1" as="geometry" />
        </mxCell>
        <mxCell id="YIULkjpwCNEE645c2rZU-70" style="edgeStyle=orthogonalEdgeStyle;rounded=0;orthogonalLoop=1;jettySize=auto;html=1;entryX=0.5;entryY=0;entryDx=0;entryDy=0;entryPerimeter=0;" edge="1" parent="WIyWlLk6GJQsqaUBKTNV-1" source="YIULkjpwCNEE645c2rZU-37" target="YIULkjpwCNEE645c2rZU-31">
          <mxGeometry relative="1" as="geometry" />
        </mxCell>
        <mxCell id="YIULkjpwCNEE645c2rZU-73" value="yes" style="edgeStyle=orthogonalEdgeStyle;rounded=0;orthogonalLoop=1;jettySize=auto;html=1;entryX=0;entryY=0.5;entryDx=0;entryDy=0;entryPerimeter=0;" edge="1" parent="WIyWlLk6GJQsqaUBKTNV-1" source="YIULkjpwCNEE645c2rZU-31" target="YIULkjpwCNEE645c2rZU-57">
          <mxGeometry relative="1" as="geometry">
            <Array as="points">
              <mxPoint x="-420" y="1280" />
            </Array>
          </mxGeometry>
        </mxCell>
        <mxCell id="YIULkjpwCNEE645c2rZU-75" value="no" style="edgeStyle=orthogonalEdgeStyle;rounded=0;orthogonalLoop=1;jettySize=auto;html=1;entryX=0.5;entryY=0;entryDx=0;entryDy=0;entryPerimeter=0;" edge="1" parent="WIyWlLk6GJQsqaUBKTNV-1" source="YIULkjpwCNEE645c2rZU-57" target="YIULkjpwCNEE645c2rZU-7">
          <mxGeometry relative="1" as="geometry" />
        </mxCell>
        <mxCell id="YIULkjpwCNEE645c2rZU-80" style="edgeStyle=orthogonalEdgeStyle;rounded=0;orthogonalLoop=1;jettySize=auto;html=1;entryX=0.5;entryY=0;entryDx=0;entryDy=0;entryPerimeter=0;" edge="1" parent="WIyWlLk6GJQsqaUBKTNV-1" source="YIULkjpwCNEE645c2rZU-58" target="YIULkjpwCNEE645c2rZU-7">
          <mxGeometry relative="1" as="geometry">
            <Array as="points">
              <mxPoint x="-20" y="1180" />
              <mxPoint x="-20" y="1360" />
            </Array>
          </mxGeometry>
        </mxCell>
        <mxCell id="YIULkjpwCNEE645c2rZU-82" style="edgeStyle=orthogonalEdgeStyle;rounded=0;orthogonalLoop=1;jettySize=auto;html=1;entryX=0.5;entryY=0;entryDx=0;entryDy=0;entryPerimeter=0;" edge="1" parent="WIyWlLk6GJQsqaUBKTNV-1" source="YIULkjpwCNEE645c2rZU-2" target="YIULkjpwCNEE645c2rZU-0">
          <mxGeometry relative="1" as="geometry" />
        </mxCell>
        <mxCell id="YIULkjpwCNEE645c2rZU-87" style="edgeStyle=orthogonalEdgeStyle;rounded=0;orthogonalLoop=1;jettySize=auto;html=1;entryX=0.5;entryY=0;entryDx=0;entryDy=0;entryPerimeter=0;" edge="1" parent="WIyWlLk6GJQsqaUBKTNV-1" source="YIULkjpwCNEE645c2rZU-32" target="YIULkjpwCNEE645c2rZU-24">
          <mxGeometry relative="1" as="geometry" />
        </mxCell>
        <mxCell id="YIULkjpwCNEE645c2rZU-89" value="yes" style="edgeStyle=orthogonalEdgeStyle;rounded=0;orthogonalLoop=1;jettySize=auto;html=1;entryX=0;entryY=0.5;entryDx=0;entryDy=0;entryPerimeter=0;" edge="1" parent="WIyWlLk6GJQsqaUBKTNV-1" source="YIULkjpwCNEE645c2rZU-24" target="YIULkjpwCNEE645c2rZU-30">
          <mxGeometry relative="1" as="geometry">
            <Array as="points">
              <mxPoint x="20" y="640" />
              <mxPoint x="20" y="840" />
            </Array>
          </mxGeometry>
        </mxCell>
        <mxCell id="YIULkjpwCNEE645c2rZU-90" style="edgeStyle=orthogonalEdgeStyle;rounded=0;orthogonalLoop=1;jettySize=auto;html=1;entryX=0.5;entryY=0;entryDx=0;entryDy=0;entryPerimeter=0;" edge="1" parent="WIyWlLk6GJQsqaUBKTNV-1" source="YIULkjpwCNEE645c2rZU-15" target="YIULkjpwCNEE645c2rZU-30">
          <mxGeometry relative="1" as="geometry" />
        </mxCell>
        <mxCell id="YIULkjpwCNEE645c2rZU-91" value="yes" style="edgeStyle=orthogonalEdgeStyle;rounded=0;orthogonalLoop=1;jettySize=auto;html=1;entryX=0.5;entryY=0;entryDx=0;entryDy=0;entryPerimeter=0;" edge="1" parent="WIyWlLk6GJQsqaUBKTNV-1" source="YIULkjpwCNEE645c2rZU-30" target="YIULkjpwCNEE645c2rZU-7">
          <mxGeometry x="-0.9474" relative="1" as="geometry">
            <Array as="points">
              <mxPoint x="140" y="1360" />
            </Array>
            <mxPoint as="offset" />
          </mxGeometry>
        </mxCell>
      </root>
    </mxGraphModel>
  </diagram>
</mxfile>
